<svg width="512" height="512" viewBox="0 0 512 512" fill="none" xmlns="http://www.w3.org/2000/svg">
<mask id="mask0_1_42" style="mask-type:alpha" maskUnits="userSpaceOnUse" x="0" y="0" width="512" height="512">
<rect width="512" height="512" rx="52" fill="#303030"/>
</mask>
<g mask="url(#mask0_1_42)">
<rect width="512" height="512" rx="52" fill="#303030"/>
<path d="M18.77 64.6229C20.9543 64.0377 23.5511 63.6731 26.5604 63.5294C29.6109 63.3746 31.8895 63.4708 33.396 63.818L36.6095 75.811L34.2604 76.4404C28.7351 70.9859 22.8402 69.098 16.5759 70.7765C13.8558 71.5053 11.5778 72.9771 9.74176 75.1917C7.9359 77.3541 6.77515 80.0284 6.25951 83.2144C5.73284 86.3592 5.93882 89.6831 6.87747 93.1862C7.95968 97.2251 9.56622 100.748 11.6971 103.755C13.8692 106.751 16.5033 108.916 19.5996 110.251C22.7372 111.575 26.2017 111.729 29.9933 110.713C33.4964 109.774 37.8176 105.789 42.9569 98.758L45.6066 101.228L36.6006 113.116C35.2193 114.061 33.8295 114.809 32.4312 115.36C31.0852 115.942 29.5879 116.453 27.9394 116.895C23.612 118.054 19.4976 118.03 15.5962 116.823C11.6948 115.616 8.32537 113.426 5.48797 110.255C2.63953 107.043 0.585862 103.088 -0.673034 98.3897C-1.96506 93.5678 -1.75646 88.7414 -0.0472386 83.9104C1.65094 79.0382 4.26655 74.8699 7.7996 71.4054C11.3216 67.8997 14.9784 65.6389 18.77 64.6229ZM89.852 62.2735L88.163 63.3886L76.6779 53.4133L69.1359 55.4342L80.1513 96.544L87.2386 97.0302L86.6648 99.8343L67.8717 104.87L67.3583 102.953L71.9435 96.8218L61.4085 57.5047L54.052 59.4759L49.0933 73.8574L47.073 73.7361L42.9319 58.2813L46.5683 58.4995L82.6708 48.8259L85.7109 46.8187L89.852 62.2735ZM152.228 82.3991L140.73 85.4801L121.249 67.1784L117.781 65.8551L118.211 63.7521L121.673 62.8244C124.475 62.0735 126.492 60.7821 127.724 58.9502C128.986 57.066 129.286 54.8876 128.623 52.4148C127.751 49.159 126.121 46.7025 123.733 45.0453C121.335 43.3469 118.405 42.9615 114.943 43.8891C112.635 44.5075 110.695 45.7563 109.122 47.6353L119.442 86.1487L126.529 86.6349L125.955 89.439L107.162 94.4746L106.649 92.5582L111.234 86.4265L101.163 48.8404L94.1702 48.4612L94.744 45.6572L101.915 43.7357C105.665 42.7308 109.321 41.6188 112.881 40.3997C115.475 39.5281 117.41 38.9212 118.688 38.5789C121.449 37.839 124.05 37.7383 126.492 38.2768C128.974 38.8043 131.046 39.8613 132.708 41.4479C134.411 43.0234 135.567 44.9446 136.174 47.2113C136.726 49.2719 136.617 51.4213 135.848 53.6594C135.067 55.8563 133.814 57.937 132.087 59.9014C130.391 61.8136 128.483 63.4292 126.363 64.7482L130.745 65.0315L144.468 77.9189L152.802 79.595L152.228 82.3991ZM194.145 71.035L157.054 80.9736L156.54 79.0572L161.125 72.9255L151.087 35.4631L144.078 35.0221L144.652 32.218L163.445 27.1824L163.959 29.0988L159.312 35.2471L169.847 74.5641L185.796 70.2905L191.289 54.4408L193.309 54.562L197.782 71.2532L194.145 71.035ZM214.608 46.4697L217.971 59.0191L215.436 59.6982L212.074 47.1489L199.524 50.5115L198.845 47.9769L211.394 44.6143L208.032 32.065L210.566 31.3859L213.929 43.9352L226.478 40.5726L227.157 43.1072L214.608 46.4697ZM266.872 48.5663L272.098 33.4507L274.118 33.5719L278.425 49.6449L274.789 49.4267L238.748 59.0837L238.002 56.3019L257.445 4.97688L238.034 10.1781L233.342 23.8254L231.322 23.7042L227.346 8.86755L230.983 9.08582L265.725 -0.223386L266.471 2.55848L247.028 53.8835L266.872 48.5663Z" fill="white"/>
<path d="M49.77 488.438C51.9543 487.852 54.5511 487.488 57.5604 487.344C60.6109 487.189 62.8895 487.286 64.396 487.633L67.6095 499.626L65.2604 500.255C59.7351 494.801 53.8402 492.913 47.5759 494.591C44.8558 495.32 42.5778 496.792 40.7418 499.006C38.9359 501.169 37.7751 503.843 37.2595 507.029C36.7328 510.174 36.9388 513.498 37.8775 517.001C38.9597 521.04 40.5662 524.563 42.6971 527.57C44.8692 530.566 47.5033 532.731 50.5996 534.066C53.7372 535.389 57.2017 535.543 60.9933 534.527C64.4964 533.589 68.8176 529.604 73.9569 522.573L76.6066 525.043L67.6006 536.931C66.2193 537.876 64.8295 538.623 63.4312 539.175C62.0852 539.756 60.5879 540.268 58.9394 540.71C54.612 541.869 50.4976 541.845 46.5962 540.638C42.6948 539.43 39.3254 537.241 36.488 534.07C33.6395 530.858 31.5859 526.903 30.327 522.204C29.0349 517.383 29.2435 512.556 30.9528 507.725C32.6509 502.853 35.2666 498.685 38.7996 495.22C42.3216 491.714 45.9784 489.454 49.77 488.438ZM120.852 486.088L119.163 487.203L107.678 477.228L100.136 479.249L111.151 520.359L118.239 520.845L117.665 523.649L98.8717 528.685L98.3583 526.768L102.943 520.637L92.4085 481.319L85.052 483.291L80.0933 497.672L78.073 497.551L73.9319 482.096L77.5683 482.314L113.671 472.641L116.711 470.633L120.852 486.088ZM183.228 506.214L171.73 509.295L152.249 490.993L148.781 489.67L149.211 487.567L152.673 486.639C155.475 485.888 157.492 484.597 158.724 482.765C159.986 480.881 160.286 478.702 159.623 476.23C158.751 472.974 157.121 470.517 154.733 468.86C152.335 467.162 149.405 466.776 145.943 467.704C143.635 468.322 141.695 469.571 140.122 471.45L150.442 509.963L157.529 510.45L156.955 513.254L138.162 518.289L137.649 516.373L142.234 510.241L132.163 472.655L125.17 472.276L125.744 469.472L132.915 467.55C136.665 466.546 140.321 465.434 143.881 464.215C146.475 463.343 148.41 462.736 149.688 462.394C152.449 461.654 155.05 461.553 157.492 462.092C159.974 462.619 162.046 463.676 163.708 465.263C165.411 466.838 166.567 468.759 167.174 471.026C167.726 473.087 167.617 475.236 166.848 477.474C166.067 479.671 164.814 481.752 163.087 483.716C161.391 485.628 159.483 487.244 157.363 488.563L161.745 488.846L175.468 501.734L183.802 503.41L183.228 506.214ZM225.145 494.85L188.054 504.788L187.54 502.872L192.125 496.74L182.087 459.278L175.078 458.837L175.652 456.033L194.445 450.997L194.959 452.914L190.312 459.062L200.847 498.379L216.796 494.105L222.289 478.256L224.309 478.377L228.782 495.068L225.145 494.85ZM245.608 470.285L248.971 482.834L246.436 483.513L243.074 470.964L230.524 474.326L229.845 471.792L242.394 468.429L239.032 455.88L241.566 455.201L244.929 467.75L257.478 464.387L258.157 466.922L245.608 470.285ZM318.029 469.962L299.236 474.997L298.722 473.081L303.324 467.011L295.499 456.85L274.728 462.416L272.79 475.458L284.664 476.251L284.09 479.056L265.297 484.091L264.783 482.175L269.369 476.043L276.113 431.235L281.698 426.359L311.41 465.043L318.603 467.158L318.029 469.962ZM278.802 435.086L275.219 459.302L293.641 454.366L278.802 435.086ZM360.073 458.696L322.982 468.635L322.468 466.718L327.053 460.587L317.015 423.124L310.006 422.683L310.58 419.879L329.373 414.843L329.887 416.76L325.24 422.908L335.775 462.225L351.724 457.951L357.217 442.102L359.237 442.223L363.709 458.914L360.073 458.696ZM396.382 412.26L394.693 413.375L383.208 403.4L375.666 405.421L386.682 446.531L393.769 447.017L393.195 449.821L374.402 454.856L373.889 452.94L378.474 446.808L367.939 407.491L360.582 409.463L355.624 423.844L353.603 423.723L349.462 408.268L353.099 408.486L389.201 398.813L392.241 396.805L396.382 412.26ZM422.674 422.84L426.037 435.389L423.502 436.068L420.14 423.519L407.59 426.881L406.911 424.347L419.461 420.984L416.098 408.435L418.633 407.756L421.995 420.305L434.545 416.943L435.224 419.477L422.674 422.84ZM458.435 379.665C462.68 378.528 466.706 378.553 470.514 379.741C474.352 380.877 477.643 383.021 480.387 386.173C483.173 389.314 485.178 393.172 486.404 397.746C487.663 402.445 487.447 407.162 485.757 411.9C484.097 416.585 481.542 420.649 478.091 424.091C474.671 427.482 471.106 429.674 467.397 430.667C465.501 431.175 463.557 431.586 461.565 431.899C458.336 432.543 455.856 433.097 454.125 433.561L446.274 435.665L445.761 433.748L450.346 427.617L440.275 390.03L433.283 389.651L433.856 386.847L441.027 384.926C444.943 383.877 448.722 382.732 452.365 381.49C455.123 380.575 457.141 379.946 458.418 379.603L458.435 379.665ZM467.902 425.629C470.869 424.834 473.359 423.328 475.371 421.11C477.372 418.851 478.677 416.138 479.286 412.971C479.925 409.752 479.775 406.391 478.837 402.888C477.71 398.684 476.029 395.049 473.794 391.982C471.548 388.873 468.788 386.653 465.516 385.321C462.285 383.978 458.671 383.842 454.673 384.914C452.159 385.587 450.029 386.953 448.284 389.011L458.339 426.535C461.129 426.892 464.316 426.59 467.902 425.629ZM538.286 410.944L501.195 420.882L500.681 418.966L505.267 412.834L495.229 375.372L488.22 374.931L488.793 372.127L524.649 362.52L527.689 360.512L531.498 374.731L529.81 375.846L519.521 366.875L502.459 371.447L507.71 391.043L517.416 388.443L519.808 379.321L521.725 378.807L526.76 397.6L524.619 399.499L518.223 391.208L508.455 393.825L513.988 414.473L530.803 409.967L535.761 395.586L537.782 395.707L541.923 411.162L538.286 410.944ZM588.635 397.453L551.544 407.392L551.03 405.475L555.615 399.343L545.577 361.881L538.568 361.44L539.142 358.636L557.935 353.6L558.449 355.517L553.802 361.665L564.337 400.982L580.286 396.708L585.779 380.859L587.799 380.98L592.272 397.671L588.635 397.453ZM115.717 694.991L78.6256 704.93L78.1121 703.014L82.6973 696.882L72.6593 659.42L65.6503 658.979L66.2241 656.175L102.079 646.567L105.119 644.56L108.929 658.778L107.24 659.894L96.9519 650.923L79.8898 655.494L85.1407 675.091L94.8463 672.491L97.2389 663.368L99.1553 662.855L104.191 681.648L102.049 683.547L95.6535 675.256L85.8861 677.873L91.4186 698.521L108.233 694.015L113.192 679.634L115.212 679.755L119.354 695.21L115.717 694.991ZM163.195 645.563L161.506 646.678L150.021 636.703L142.479 638.724L153.494 679.834L160.582 680.32L160.008 683.124L141.215 688.159L140.701 686.243L145.286 680.111L134.751 640.794L127.395 642.765L122.436 657.147L120.416 657.026L116.275 641.571L119.911 641.789L156.014 632.116L159.054 630.108L163.195 645.563ZM225.571 665.689L214.073 668.77L194.592 650.468L191.124 649.145L191.554 647.042L195.016 646.114C197.818 645.363 199.835 644.072 201.067 642.24C202.329 640.356 202.629 638.177 201.966 635.704C201.094 632.449 199.464 629.992 197.076 628.335C194.678 626.636 191.747 626.251 188.286 627.179C185.978 627.797 184.037 629.046 182.465 630.925L192.784 669.438L199.872 669.924L199.298 672.729L180.505 677.764L179.991 675.848L184.577 669.716L174.506 632.13L167.513 631.751L168.087 628.947L175.258 627.025C179.008 626.02 182.664 624.908 186.224 623.689C188.818 622.818 190.753 622.211 192.031 621.868C194.792 621.129 197.393 621.028 199.835 621.566C202.317 622.094 204.389 623.151 206.051 624.737C207.754 626.313 208.91 628.234 209.517 630.501C210.069 632.561 209.96 634.711 209.191 636.949C208.41 639.146 207.156 641.227 205.43 643.191C203.734 645.103 201.826 646.719 199.705 648.038L204.088 648.321L217.811 661.208L226.145 662.885L225.571 665.689Z" fill="white"/>
<path d="M307.313 103.474C306.97 102.197 306.135 101.139 304.806 100.303C303.478 99.466 301.909 98.8042 300.1 98.3171C298.321 97.7778 295.931 97.1815 292.929 96.5283C289.355 95.719 286.465 94.9914 284.26 94.3454C282.044 93.6582 280.041 92.6932 278.25 91.4503C276.501 90.1964 275.367 88.6009 274.848 86.6639C274.295 84.6033 274.57 82.1665 275.672 79.3535C276.762 76.4994 278.328 73.9374 280.37 71.6675C282.443 69.3454 284.53 67.9027 286.632 67.3395C289.187 66.6548 292.237 66.1688 295.782 65.8815C299.327 65.5942 301.977 65.591 303.73 65.872L306.944 77.8649L304.595 78.4944C301.681 75.6973 298.76 73.6972 295.831 72.4941C292.944 71.28 290.181 71.0264 287.544 71.7331C285.195 72.3626 283.518 73.6068 282.515 75.466C281.541 77.2728 281.369 79.3508 281.999 81.7C282.363 83.06 283.22 84.1995 284.571 85.1186C285.952 85.9855 287.526 86.668 289.294 87.1661C291.103 87.6531 293.581 88.2479 296.729 88.9505C300.187 89.6582 303.025 90.3556 305.241 91.0428C307.446 91.6888 309.397 92.6237 311.094 93.8474C312.821 95.0189 313.945 96.5732 314.464 98.5102C315.016 100.571 314.685 103.045 313.471 105.932C312.246 108.778 310.514 111.384 308.277 113.751C306.07 116.065 303.875 117.514 301.69 118.1C299.012 118.817 295.735 119.364 291.86 119.74C288.026 120.104 285.212 120.152 283.417 119.882L280.204 107.889L282.553 107.259C285.549 110.035 288.635 111.99 291.811 113.127C294.987 114.264 297.996 114.451 300.84 113.689C302.53 113.237 303.935 112.463 305.055 111.367C306.175 110.272 306.925 109.033 307.305 107.65C307.675 106.226 307.677 104.834 307.313 103.474ZM377.145 96.4902L358.352 101.526L357.838 99.6094L362.424 93.4777L358.051 77.1574L333.632 83.7004L338.486 101.813L345.573 102.3L344.999 105.104L326.206 110.139L325.692 108.223L330.278 102.091L320.24 64.6287L313.231 64.1878L313.805 61.3837L332.598 56.3481L333.111 58.2645L328.464 64.4128L332.887 80.9185L357.305 74.3756L352.386 56.0152L345.377 55.5743L345.951 52.7702L364.744 47.7346L365.257 49.651L360.61 55.7993L370.632 93.1999L377.719 93.6861L377.145 96.4902ZM403.981 89.2996L385.188 94.3351L384.674 92.4187L389.26 86.2871L379.222 48.8246L372.213 48.3836L372.786 45.5796L391.579 40.544L392.093 42.4604L387.446 48.6086L397.467 86.0093L404.555 86.4955L403.981 89.2996ZM442.358 40.9846L440.669 42.0997L430.38 33.1289L413.318 37.7007L418.569 57.2974L428.275 54.6968L430.667 45.5747L432.584 45.0612L437.122 61.9997L434.981 63.8986L429.206 57.4289L419.253 60.0958L424.156 78.3943L434.45 78.485L433.876 81.2891L411.992 87.1529L411.479 85.2365L416.064 79.1048L406.026 41.6424L399.017 41.2014L399.591 38.3973L435.446 28.79L438.548 26.7662L442.358 40.9846ZM494.086 28.4491L492.397 29.5642L480.912 19.5889L473.37 21.6098L484.386 62.7196L491.473 63.2058L490.899 66.0099L472.106 71.0454L471.593 69.129L476.178 62.9974L465.643 23.6803L458.286 25.6515L453.328 40.0329L451.307 39.9117L447.166 24.4569L450.803 24.6751L486.905 15.0015L489.945 12.9943L494.086 28.4491Z" fill="white"/>
<rect x="-100.596" y="173.155" width="65" height="282" rx="14" transform="rotate(-8.39939 -100.596 173.155)" fill="#F9ED6A"/>
<rect x="-23.5788" y="160.772" width="65" height="283" rx="14" transform="rotate(-8.39939 -23.5788 160.772)" fill="#F9ED6A"/>
<rect x="52.8874" y="151.503" width="65" height="282" rx="14" transform="rotate(-8.39939 52.8874 151.503)" fill="#F9ED6A"/>
<rect x="128.769" y="138.276" width="65" height="282" rx="14" transform="rotate(-8.39939 128.769 138.276)" fill="#F9ED6A"/>
<rect x="204.797" y="126.04" width="66" height="282" rx="14" transform="rotate(-8.39939 204.797 126.04)" fill="#F9ED6A"/>
<rect x="281.118" y="115.781" width="66" height="283" rx="14" transform="rotate(-8.39939 281.118 115.781)" fill="#F9ED6A"/>
<rect x="357.292" y="104.534" width="65" height="282" rx="14" transform="rotate(-8.39939 357.292 104.534)" fill="#F9ED6A"/>
<rect x="433.32" y="92.2968" width="66" height="282" rx="14" transform="rotate(-8.39939 433.32 92.2968)" fill="#F9ED6A"/>
<rect x="509.64" y="82.0385" width="66" height="283" rx="14" transform="rotate(-8.39939 509.64 82.0385)" fill="#F9ED6A"/>
<rect x="18.2427" y="142.249" width="47" height="204" rx="14" transform="rotate(-8.39939 18.2427 142.249)" fill="#303030"/>
<rect x="95.4061" y="130.856" width="47" height="204" rx="14" transform="rotate(-8.39939 95.4061 130.856)" fill="#303030"/>
<rect x="173.154" y="123.419" width="47" height="204" rx="14" transform="rotate(-8.39939 173.154 123.419)" fill="#303030"/>
<rect x="328.875" y="96.3826" width="47" height="204" rx="14" transform="rotate(-8.39939 328.875 96.3826)" fill="#303030"/>
<rect x="400.102" y="85.8654" width="47" height="204" rx="14" transform="rotate(-8.39939 400.102 85.8654)" fill="#303030"/>
</g>
</svg>
